<mxfile host="app.diagrams.net" agent="Mozilla/5.0 (Windows NT 10.0; Win64; x64; rv:136.0) Gecko/20100101 Firefox/136.0" version="26.1.1">
  <diagram name="Page-1" id="b8GMRZ8AMFRlZn-gyObL">
    <mxGraphModel dx="1050" dy="558" grid="1" gridSize="10" guides="1" tooltips="1" connect="1" arrows="1" fold="1" page="1" pageScale="1" pageWidth="827" pageHeight="1169" math="0" shadow="0">
      <root>
        <mxCell id="0" />
        <mxCell id="1" parent="0" />
        <mxCell id="2wvptC908o0DoQMj4nhx-1" value="" style="rounded=0;whiteSpace=wrap;html=1;" vertex="1" parent="1">
          <mxGeometry x="240" y="10" width="400" height="590" as="geometry" />
        </mxCell>
        <mxCell id="2wvptC908o0DoQMj4nhx-2" value="SOS subsystem" style="text;html=1;align=center;verticalAlign=middle;whiteSpace=wrap;rounded=0;" vertex="1" parent="1">
          <mxGeometry x="415" y="10" width="60" height="30" as="geometry" />
        </mxCell>
        <mxCell id="2wvptC908o0DoQMj4nhx-6" style="edgeStyle=orthogonalEdgeStyle;rounded=0;orthogonalLoop=1;jettySize=auto;html=1;entryX=0;entryY=0.5;entryDx=0;entryDy=0;endArrow=none;startFill=0;" edge="1" parent="1" source="2wvptC908o0DoQMj4nhx-3" target="2wvptC908o0DoQMj4nhx-4">
          <mxGeometry relative="1" as="geometry">
            <Array as="points">
              <mxPoint x="200" y="140" />
              <mxPoint x="200" y="120" />
            </Array>
          </mxGeometry>
        </mxCell>
        <mxCell id="2wvptC908o0DoQMj4nhx-8" style="edgeStyle=orthogonalEdgeStyle;rounded=0;orthogonalLoop=1;jettySize=auto;html=1;entryX=0;entryY=0.5;entryDx=0;entryDy=0;endArrow=none;startFill=0;" edge="1" parent="1" source="2wvptC908o0DoQMj4nhx-3" target="2wvptC908o0DoQMj4nhx-5">
          <mxGeometry relative="1" as="geometry">
            <Array as="points">
              <mxPoint x="200" y="150" />
              <mxPoint x="200" y="215" />
            </Array>
          </mxGeometry>
        </mxCell>
        <mxCell id="2wvptC908o0DoQMj4nhx-3" value="User" style="shape=umlActor;verticalLabelPosition=bottom;verticalAlign=top;html=1;outlineConnect=0;" vertex="1" parent="1">
          <mxGeometry x="90" y="110" width="30" height="60" as="geometry" />
        </mxCell>
        <mxCell id="2wvptC908o0DoQMj4nhx-4" value="sends SOS, allow for location sharing" style="ellipse;whiteSpace=wrap;html=1;" vertex="1" parent="1">
          <mxGeometry x="320" y="85" width="140" height="70" as="geometry" />
        </mxCell>
        <mxCell id="2wvptC908o0DoQMj4nhx-10" value="" style="edgeStyle=orthogonalEdgeStyle;rounded=0;orthogonalLoop=1;jettySize=auto;html=1;endArrow=open;endFill=0;dashed=1;" edge="1" parent="1" source="2wvptC908o0DoQMj4nhx-5" target="2wvptC908o0DoQMj4nhx-4">
          <mxGeometry relative="1" as="geometry" />
        </mxCell>
        <mxCell id="2wvptC908o0DoQMj4nhx-12" value="&amp;lt;&amp;lt;extend&amp;gt;&amp;gt;" style="edgeLabel;html=1;align=center;verticalAlign=middle;resizable=0;points=[];" vertex="1" connectable="0" parent="2wvptC908o0DoQMj4nhx-10">
          <mxGeometry x="0.1111" y="-1" relative="1" as="geometry">
            <mxPoint as="offset" />
          </mxGeometry>
        </mxCell>
        <mxCell id="2wvptC908o0DoQMj4nhx-5" value="receives nearby SOS notification" style="ellipse;whiteSpace=wrap;html=1;" vertex="1" parent="1">
          <mxGeometry x="320" y="190" width="140" height="70" as="geometry" />
        </mxCell>
        <mxCell id="2wvptC908o0DoQMj4nhx-19" style="edgeStyle=orthogonalEdgeStyle;rounded=0;orthogonalLoop=1;jettySize=auto;html=1;endArrow=none;startFill=0;" edge="1" parent="1" source="2wvptC908o0DoQMj4nhx-9" target="2wvptC908o0DoQMj4nhx-15">
          <mxGeometry relative="1" as="geometry">
            <Array as="points">
              <mxPoint x="220" y="320" />
              <mxPoint x="220" y="325" />
            </Array>
          </mxGeometry>
        </mxCell>
        <mxCell id="2wvptC908o0DoQMj4nhx-20" style="edgeStyle=orthogonalEdgeStyle;rounded=0;orthogonalLoop=1;jettySize=auto;html=1;entryX=0;entryY=0.5;entryDx=0;entryDy=0;endArrow=none;startFill=0;" edge="1" parent="1" source="2wvptC908o0DoQMj4nhx-9" target="2wvptC908o0DoQMj4nhx-16">
          <mxGeometry relative="1" as="geometry">
            <Array as="points">
              <mxPoint x="220" y="330" />
              <mxPoint x="220" y="425" />
            </Array>
          </mxGeometry>
        </mxCell>
        <mxCell id="2wvptC908o0DoQMj4nhx-21" style="edgeStyle=orthogonalEdgeStyle;rounded=0;orthogonalLoop=1;jettySize=auto;html=1;entryX=0;entryY=0.5;entryDx=0;entryDy=0;endArrow=none;startFill=0;" edge="1" parent="1" source="2wvptC908o0DoQMj4nhx-9" target="2wvptC908o0DoQMj4nhx-17">
          <mxGeometry relative="1" as="geometry">
            <Array as="points">
              <mxPoint x="210" y="340" />
              <mxPoint x="210" y="525" />
            </Array>
          </mxGeometry>
        </mxCell>
        <mxCell id="2wvptC908o0DoQMj4nhx-9" value="ER admin" style="shape=umlActor;verticalLabelPosition=bottom;verticalAlign=top;html=1;outlineConnect=0;" vertex="1" parent="1">
          <mxGeometry x="90" y="310" width="30" height="60" as="geometry" />
        </mxCell>
        <mxCell id="2wvptC908o0DoQMj4nhx-15" value="receives SOS reporting" style="ellipse;whiteSpace=wrap;html=1;" vertex="1" parent="1">
          <mxGeometry x="320" y="290" width="140" height="70" as="geometry" />
        </mxCell>
        <mxCell id="2wvptC908o0DoQMj4nhx-22" value="" style="edgeStyle=orthogonalEdgeStyle;rounded=0;orthogonalLoop=1;jettySize=auto;html=1;endArrow=open;endFill=0;dashed=1;" edge="1" parent="1" source="2wvptC908o0DoQMj4nhx-16" target="2wvptC908o0DoQMj4nhx-15">
          <mxGeometry relative="1" as="geometry" />
        </mxCell>
        <mxCell id="2wvptC908o0DoQMj4nhx-23" value="&amp;lt;&amp;lt;include&amp;gt;&amp;gt;" style="edgeLabel;html=1;align=center;verticalAlign=middle;resizable=0;points=[];" vertex="1" connectable="0" parent="2wvptC908o0DoQMj4nhx-22">
          <mxGeometry x="0.36" y="-1" relative="1" as="geometry">
            <mxPoint as="offset" />
          </mxGeometry>
        </mxCell>
        <mxCell id="2wvptC908o0DoQMj4nhx-16" value="dispatches response team(s)" style="ellipse;whiteSpace=wrap;html=1;" vertex="1" parent="1">
          <mxGeometry x="320" y="390" width="140" height="70" as="geometry" />
        </mxCell>
        <mxCell id="2wvptC908o0DoQMj4nhx-24" value="" style="edgeStyle=orthogonalEdgeStyle;rounded=0;orthogonalLoop=1;jettySize=auto;html=1;endArrow=open;endFill=0;dashed=1;" edge="1" parent="1" source="2wvptC908o0DoQMj4nhx-17" target="2wvptC908o0DoQMj4nhx-16">
          <mxGeometry relative="1" as="geometry" />
        </mxCell>
        <mxCell id="2wvptC908o0DoQMj4nhx-25" value="&amp;lt;&amp;lt;include&amp;gt;&amp;gt;" style="edgeLabel;html=1;align=center;verticalAlign=middle;resizable=0;points=[];" vertex="1" connectable="0" parent="2wvptC908o0DoQMj4nhx-24">
          <mxGeometry x="0.4" y="-2" relative="1" as="geometry">
            <mxPoint as="offset" />
          </mxGeometry>
        </mxCell>
        <mxCell id="2wvptC908o0DoQMj4nhx-17" value="communicates with response team and user, provides updates" style="ellipse;whiteSpace=wrap;html=1;" vertex="1" parent="1">
          <mxGeometry x="320" y="490" width="140" height="70" as="geometry" />
        </mxCell>
      </root>
    </mxGraphModel>
  </diagram>
</mxfile>
